<?xml version="1.0" encoding="utf-8"?>
<!-- Generator: Adobe Illustrator 25.4.1, SVG Export Plug-In . SVG Version: 6.00 Build 0)  -->
<svg version="1.1" id="Layer_1" xmlns="http://www.w3.org/2000/svg" xmlns:xlink="http://www.w3.org/1999/xlink" x="0px" y="0px"
	 viewBox="0 0 430 70" style="enable-background:new 0 0 430 70;" xml:space="preserve">
<style type="text/css">
	.st0{fill:#231F20;}
</style>
<g>
	<g>
		<rect x="2" y="3" class="st0" width="9.6" height="64.6"/>
		<polygon class="st0" points="129.2,3 106.3,3 106.3,5.5 129.2,5.5 129.2,67.6 139.5,67.6 139.5,5.5 162.4,5.5 162.4,3 139.5,3 		
			"/>
		<polygon class="st0" points="87,53.1 41.1,3 37.6,3 37.6,67.6 41.1,67.6 41.1,17.3 87,67.6 90.5,67.6 90.5,3 87,3 		"/>
		<polygon class="st0" points="288.8,53.1 242.9,3 239.4,3 239.4,67.6 242.9,67.6 242.9,17.3 288.8,67.6 292.3,67.6 292.3,3 
			288.8,3 		"/>
		<polygon class="st0" points="179.2,3 176.6,3 176.6,67.6 179.4,67.6 187,67.6 220.4,67.6 220.4,65.2 187,65.2 187,32.6 
			216.7,32.6 216.7,30.2 187,30.2 187,5.5 220.4,5.5 220.4,3 187,3 		"/>
		<polygon class="st0" points="428,5.5 428,3 394.6,3 386.8,3 384.2,3 384.2,67.6 387,67.6 394.6,67.6 428,67.6 428,65.2 
			394.6,65.2 394.6,32.6 424.3,32.6 424.3,30.2 394.6,30.2 394.6,5.5 		"/>
		<g>
			<path class="st0" d="M313.9,60.2v1.9c3-0.4,6.1-1.5,9.3-3.7c6.4-4.5,9.9-14.2,13.2-23.9h-6.8C327,45.5,323.9,57.2,313.9,60.2z"/>
			<path class="st0" d="M362.7,2.2c-11.4,0-23.9,2.4-30,20.4c-0.8,2.3-1.4,4.8-2.1,7.5h7.3c2.5-7.3,5.1-14.1,9-18
				c6.4-6.5,17.4-9,28.5-5.7V4.4C371.5,3.2,367.2,2.2,362.7,2.2z"/>
		</g>
		<g>
			<path class="st0" d="M363.9,9.9V8c-3,0.4-6.1,1.5-9.3,3.7c-6.4,4.4-9.9,14.2-13.2,23.8h6.8C350.8,24.6,353.9,12.9,363.9,9.9z"/>
			<path class="st0" d="M315.2,67.9c11.5,0,23.9-2.4,30-20.4c0.8-2.3,1.4-4.8,2.1-7.5H340c-2.5,7.3-5.1,14.1-9,18
				c-6.4,6.5-17.4,9-28.5,5.7v1.9C306.4,66.9,310.7,67.9,315.2,67.9z"/>
		</g>
	</g>
</g>
</svg>
